HIERARCHY
ROOT Hips
{
	OFFSET -0.001795 -0.223333 0.028219
	CHANNELS 6 Xposition Yposition Zposition Zrotation Yrotation Xrotation 
	JOINT LeftUpLeg
	{
		OFFSET 0.069520 -0.091406 -0.006815
		CHANNELS 3 Zrotation Yrotation Xrotation
		JOINT LeftLeg
		{
			OFFSET 0.034277 -0.375199 -0.004496
			CHANNELS 3 Zrotation Yrotation Xrotation
			JOINT LeftFoot
			{
				OFFSET -0.013596 -0.397961 -0.043693
				CHANNELS 3 Zrotation Yrotation Xrotation
				JOINT LeftToe
				{
					OFFSET 0.026358 -0.055791 0.119288
					CHANNELS 3 Zrotation Yrotation Xrotation
					End Site
					{
						OFFSET 0.000000 0.000000 0.000000
					}
				}
			}
		}
	}
	JOINT RightUpLeg
	{
		OFFSET -0.067670 -0.090522 -0.004320
		CHANNELS 3 Zrotation Yrotation Xrotation
		JOINT RightLeg
		{
			OFFSET -0.038290 -0.382569 -0.008850
			CHANNELS 3 Zrotation Yrotation Xrotation
			JOINT RightFoot
			{
				OFFSET 0.015774 -0.398415 -0.042312
				CHANNELS 3 Zrotation Yrotation Xrotation
				JOINT RightToe
				{
					OFFSET -0.025372 -0.048144 0.123348
					CHANNELS 3 Zrotation Yrotation Xrotation
					End Site
					{
						OFFSET 0.000000 0.000000 0.000000
					}
				}
			}
		}
	}
	JOINT Spine
	{
		OFFSET -0.002533 0.108963 -0.026696
		CHANNELS 3 Zrotation Yrotation Xrotation
		JOINT Spine1
		{
			OFFSET 0.005487 0.135180 0.001092
			CHANNELS 3 Zrotation Yrotation Xrotation
			JOINT Spine2
			{
				OFFSET 0.001457 0.052922 0.025425
				CHANNELS 3 Zrotation Yrotation Xrotation
				JOINT Neck
				{
					OFFSET -0.002778 0.213870 -0.042857
					CHANNELS 3 Zrotation Yrotation Xrotation
					JOINT Head
					{
						OFFSET 0.005152 0.064970 0.051349
						CHANNELS 3 Zrotation Yrotation Xrotation
						End Site
						{
							OFFSET 0.000000 0.000000 0.000000
						}
					}
				}
				JOINT LeftShoulder
				{
					OFFSET 0.078845 0.121749 -0.034090
					CHANNELS 3 Zrotation Yrotation Xrotation
					JOINT LeftArm
					{
						OFFSET 0.090977 0.030469 -0.008868
						CHANNELS 3 Zrotation Yrotation Xrotation
						JOINT LeftForeArm
						{
							OFFSET 0.259612 -0.012772 -0.027456
							CHANNELS 3 Zrotation Yrotation Xrotation
							JOINT LeftHand
							{
								OFFSET 0.249234 0.008986 -0.001171
								CHANNELS 3 Zrotation Yrotation Xrotation
								End Site
								{
									OFFSET 0.000000 0.000000 0.000000
								}
							}
						}
					}
				}
				JOINT RightShoulder
				{
					OFFSET -0.081759 0.118833 -0.038615
					CHANNELS 3 Zrotation Yrotation Xrotation
					JOINT RightArm
					{
						OFFSET -0.096012 0.032551 -0.009143
						CHANNELS 3 Zrotation Yrotation Xrotation
						JOINT RightForeArm
						{
							OFFSET -0.253742 -0.013329 -0.021401
							CHANNELS 3 Zrotation Yrotation Xrotation
							JOINT RightHand
							{
								OFFSET -0.255298 0.007772 -0.005559
								CHANNELS 3 Zrotation Yrotation Xrotation
								End Site
								{
									OFFSET 0.000000 0.000000 0.000000
								}
							}
						}
					}
				}
			}
		}
	}
}
MOTION
Frames: 17
Frame Time: 0.050000
0.109682 1.373538 1.206308 -92.797550 -76.441398 47.442410 35.569851 12.116363 47.852939 -9.096199 3.353166 2.941693 5.445263 7.513168 42.085814 0.000000 0.000000 0.000000 31.498517 -0.212028 25.158337 -6.007915 12.046731 32.868263 5.764613 -14.962556 40.227282 0.000000 0.000000 0.000000 30.868308 16.024554 131.427666 -9.876489 -11.115298 -64.004732 -1.523603 0.768007 16.064172 0.799685 0.426391 -7.870791 0.000000 0.000000 0.000000 -19.695311 8.933194 -8.021538 -35.789668 6.407168 -5.763385 -146.572870 -87.227076 147.883615 0.000000 0.000000 0.000000 -9.589477 -7.348833 -1.910456 21.852475 11.255507 -0.823516 -92.237176 35.438470 -28.273519 0.000000 0.000000 0.000000 
0.109458 1.380285 1.208047 -81.776064 -77.931929 35.623835 33.608642 11.468580 48.462829 -8.357336 3.181714 3.912003 5.219245 7.261451 41.662105 0.000000 0.000000 0.000000 27.551642 -0.868514 28.951222 -7.142532 8.878875 26.722962 8.471258 -13.212545 41.321358 0.000000 0.000000 0.000000 30.807814 11.979581 131.997280 -10.186350 -10.641127 -61.499295 -2.691944 -0.831545 15.627482 2.561966 -0.566291 -10.200077 0.000000 0.000000 0.000000 -14.621614 12.023108 -8.078557 -37.737025 7.506465 -6.626096 -157.525046 -83.785201 158.047619 0.000000 0.000000 0.000000 -9.499227 -9.293100 -2.424399 26.338667 8.658470 -1.251324 -96.658464 39.315924 -34.811718 0.000000 0.000000 0.000000 
0.109492 1.384522 1.208536 -81.337603 -78.602761 35.228406 32.658650 11.413180 48.238668 -7.434198 3.081900 5.018070 4.257211 5.831599 40.918768 0.000000 0.000000 0.000000 26.039599 -0.660622 31.054447 -7.199701 7.206335 23.408226 9.489634 -12.661715 42.000053 0.000000 0.000000 0.000000 32.305036 8.335501 131.512846 -11.305244 -10.596428 -60.044196 -3.766754 -3.175714 16.294059 2.400222 -0.627254 -10.548065 0.000000 0.000000 0.000000 -12.625271 14.487300 -8.363908 -38.476108 9.014624 -7.451907 -160.171725 -81.437426 161.155172 0.000000 0.000000 0.000000 -7.437045 -10.716947 -2.834038 27.670885 6.074696 -1.896340 -104.032724 43.452777 -45.956840 0.000000 0.000000 0.000000 
0.110396 1.388107 1.208420 -73.959805 -79.400286 27.207064 31.458311 10.923860 48.617238 -6.594095 2.925869 5.955402 4.417422 5.892611 40.433519 0.000000 0.000000 0.000000 24.169336 -0.733707 33.159406 -7.174424 6.142181 21.213369 9.956022 -12.253769 41.909048 0.000000 0.000000 0.000000 33.015341 4.109301 131.816167 -12.037130 -10.197840 -58.118426 -4.894617 -5.737838 16.464895 2.301960 -0.544896 -12.884824 0.000000 0.000000 0.000000 -10.632424 17.072283 -8.780977 -39.090108 9.918753 -7.964442 -161.990475 -80.009142 163.753251 0.000000 0.000000 0.000000 -7.564133 -12.517071 -3.096540 30.942915 2.406956 -2.888728 -110.816237 46.003750 -55.856162 0.000000 0.000000 0.000000 
0.112604 1.390440 1.207882 -61.663236 -79.785640 14.431884 29.213145 10.396487 48.443398 -5.643025 2.792075 7.173779 4.128059 5.412540 40.097472 0.000000 0.000000 0.000000 22.047204 -0.771947 34.338306 -6.656240 5.566721 20.309626 9.678796 -12.310274 41.780785 0.000000 0.000000 0.000000 33.999058 -1.029981 131.447366 -13.512694 -9.425712 -55.110997 -6.969322 -10.237898 16.511737 2.342283 -0.914898 -14.569211 0.000000 0.000000 0.000000 -8.841298 18.276098 -8.536764 -39.479967 10.865373 -8.412754 -157.633052 -80.345857 160.506679 0.000000 0.000000 0.000000 -6.490130 -14.386131 -3.348535 31.970579 -0.697899 -3.797331 -117.357250 47.530728 -66.921273 0.000000 0.000000 0.000000 
0.115555 1.393898 1.207635 -47.345342 -79.524824 -0.779566 27.247410 9.720186 48.656773 -4.968951 2.663868 8.000638 4.147622 5.377667 39.528589 0.000000 0.000000 0.000000 19.766374 -0.852336 35.593734 -6.074221 5.161469 19.803050 9.685953 -12.104629 41.699131 0.000000 0.000000 0.000000 34.991939 -6.505783 131.065342 -14.703319 -8.317913 -52.281212 -9.130066 -15.249852 17.011178 2.259219 -1.347399 -17.213310 0.000000 0.000000 0.000000 -7.370365 19.441829 -8.491395 -39.873206 10.938461 -8.521865 -159.912581 -83.610139 166.521204 0.000000 0.000000 0.000000 -6.848373 -17.015447 -3.375772 33.113551 -2.322573 -4.475749 -119.729010 47.580571 -73.098116 0.000000 0.000000 0.000000 
0.117747 1.396234 1.208817 -36.522037 -79.060498 -11.945322 25.157294 9.467112 48.476148 -4.227649 2.566763 8.909362 3.579921 4.562082 39.053975 0.000000 0.000000 0.000000 17.667819 -0.668460 35.976131 -5.483568 4.972986 19.775064 9.427464 -12.182507 41.798032 0.000000 0.000000 0.000000 36.292891 -10.845552 130.172901 -15.964539 -7.587448 -50.085168 -10.976374 -20.662550 17.214201 1.771688 -1.735304 -18.643487 0.000000 0.000000 0.000000 -6.770852 20.200571 -8.601994 -39.508787 12.004417 -8.650119 -143.448342 -85.211757 151.588593 0.000000 0.000000 0.000000 -7.096676 -17.681881 -2.807587 33.005808 -3.061660 -4.765416 -119.413483 46.137356 -74.886445 0.000000 0.000000 0.000000 
0.117956 1.401633 1.211823 -22.785970 -77.168056 -26.652350 22.409881 8.894255 48.719559 -3.168544 2.311157 9.795405 2.633410 3.415467 38.730601 0.000000 0.000000 0.000000 14.754130 -0.377157 37.460482 -4.495362 4.665405 19.784909 8.650242 -12.487457 42.028419 0.000000 0.000000 0.000000 37.063372 -15.619547 129.135976 -16.925135 -6.625122 -48.133760 -12.903914 -25.645064 17.359983 1.814694 -2.501659 -20.922038 0.000000 0.000000 0.000000 -5.409023 21.260728 -8.903362 -39.250574 11.978074 -8.356295 -94.642013 -88.934406 106.717694 0.000000 0.000000 0.000000 -8.099307 -19.625400 -2.240906 32.808266 -3.794060 -5.076698 -116.818260 45.596597 -75.502624 0.000000 0.000000 0.000000 
0.115920 1.409292 1.215958 -14.305498 -75.414140 -35.363869 20.130377 9.129711 49.201147 -1.619955 1.766726 9.979845 1.015681 1.537582 38.664079 0.000000 0.000000 0.000000 12.508300 0.373115 38.748258 -3.791032 4.139127 18.946942 8.174376 -12.613784 41.931836 0.000000 0.000000 0.000000 38.403308 -18.978038 127.184092 -18.396779 -6.339953 -47.558312 -15.008565 -30.175164 17.984729 1.668864 -3.356310 -20.212658 0.000000 0.000000 0.000000 -5.677213 22.547763 -9.594072 -36.962708 12.298824 -7.910587 24.326590 -89.431009 -8.779652 0.000000 0.000000 0.000000 -7.126703 -20.698037 -2.370978 31.320483 -3.777172 -4.790946 -117.441462 46.443666 -80.927961 0.000000 0.000000 0.000000 
0.112337 1.420270 1.219963 -7.367836 -72.669871 -42.167595 17.789312 9.530914 49.484788 -0.038064 1.195378 9.973838 -0.801806 -0.361546 38.575659 0.000000 0.000000 0.000000 9.901576 1.480543 40.106087 -2.757176 3.408281 17.652232 7.503604 -12.870535 42.320741 0.000000 0.000000 0.000000 39.624974 -21.942445 124.623388 -20.541499 -6.428637 -47.521051 -16.047686 -34.568491 18.594886 0.952569 -3.924805 -18.610005 0.000000 0.000000 0.000000 -6.720506 23.006205 -9.941250 -33.580409 12.008574 -7.330733 56.721721 -87.685169 -37.536177 0.000000 0.000000 0.000000 -7.380569 -21.204744 -2.101141 30.559484 -5.455907 -5.177885 -121.262676 47.805861 -90.311819 0.000000 0.000000 0.000000 
0.109043 1.434556 1.223171 -4.219464 -71.732979 -44.668507 16.531780 10.080668 49.048217 1.503491 0.787092 10.249695 -2.500813 -2.076244 39.008418 0.000000 0.000000 0.000000 8.360023 2.555490 40.579819 -1.820135 2.852361 16.526065 7.449598 -12.852080 42.949631 0.000000 0.000000 0.000000 40.864300 -22.611191 122.369171 -22.143774 -7.266923 -48.822213 -16.744709 -36.802606 19.613022 1.250186 -4.820932 -15.795756 0.000000 0.000000 0.000000 -7.678647 23.593422 -10.206195 -30.238412 11.422106 -6.801859 69.433274 -86.912645 -48.278569 0.000000 0.000000 0.000000 -5.992164 -21.739327 -3.050454 28.691691 -6.560980 -4.992789 -126.306537 51.119107 -102.187792 0.000000 0.000000 0.000000 
0.107782 1.449475 1.225977 -3.138304 -72.238783 -45.157171 16.170295 10.393660 48.063839 2.405133 0.681783 10.892423 -3.438314 -2.949744 39.737778 0.000000 0.000000 0.000000 7.569163 3.302733 40.217241 -1.655895 2.609679 15.745111 7.570638 -12.889001 43.838872 0.000000 0.000000 0.000000 43.072339 -23.381309 120.014450 -24.452590 -8.259844 -49.654746 -17.220053 -39.669370 20.731225 -0.136290 -4.464804 -12.641205 0.000000 0.000000 0.000000 -7.745660 24.824083 -10.773078 -28.106611 11.726208 -6.479857 74.767371 -86.990381 -51.849243 0.000000 0.000000 0.000000 -5.827804 -21.893578 -3.352685 28.153487 -8.062514 -5.264873 -133.071977 54.929015 -117.825732 0.000000 0.000000 0.000000 
0.108285 1.464816 1.230031 -2.893460 -74.285390 -45.493784 16.338619 10.765874 47.982347 2.755839 0.748912 11.349304 -4.024320 -3.661898 40.234428 0.000000 0.000000 0.000000 7.291003 3.856404 40.090547 -1.515502 2.536102 15.443121 8.052041 -12.796210 45.476406 0.000000 0.000000 0.000000 44.912060 -23.887195 119.137041 -25.218829 -9.135210 -50.216493 -17.570357 -40.541106 21.323698 -0.035715 -4.703981 -10.925317 0.000000 0.000000 0.000000 -7.130647 24.214554 -10.457044 -26.999154 11.872704 -6.280604 75.465522 -85.852685 -51.100695 0.000000 0.000000 0.000000 -5.525566 -22.024275 -3.667523 27.688036 -10.494368 -5.803838 -138.505248 57.216746 -128.302140 0.000000 0.000000 0.000000 
0.109749 1.476432 1.236357 -1.510405 -75.121310 -46.473063 15.764151 11.205780 47.599159 2.487510 0.797258 10.989959 -4.616681 -4.036094 41.338136 0.000000 0.000000 0.000000 6.349963 4.311402 39.084060 -1.200342 2.502942 15.449934 7.776978 -13.156012 47.406292 0.000000 0.000000 0.000000 47.638602 -25.377605 116.834235 -27.933420 -10.060091 -50.001080 -18.992880 -43.741681 22.725565 -0.964433 -4.222106 -7.601597 0.000000 0.000000 0.000000 -6.608357 23.830800 -10.283899 -25.630835 13.046794 -6.113550 76.828291 -85.220437 -50.163915 0.000000 0.000000 0.000000 -4.476066 -21.891973 -4.562269 26.436257 -12.916324 -6.089240 -145.737329 60.503954 -143.662306 0.000000 0.000000 0.000000 
0.111306 1.484633 1.243818 0.502465 -76.400230 -47.946251 15.200317 11.743864 47.172330 2.438980 0.857383 10.876965 -5.063225 -4.539712 41.828386 0.000000 0.000000 0.000000 5.165588 4.980688 38.021111 -0.554385 2.488887 15.711905 7.524154 -13.404163 48.013020 0.000000 0.000000 0.000000 50.621837 -26.635823 114.480002 -30.521862 -11.646056 -50.233085 -20.762730 -46.173602 25.672438 -1.681171 -3.652537 -4.422143 0.000000 0.000000 0.000000 -6.950588 22.992609 -9.727804 -24.358053 12.774412 -5.938740 85.192122 -82.846892 -54.756554 0.000000 0.000000 0.000000 -3.911102 -21.486235 -5.408942 24.670718 -15.433492 -6.278686 -150.420812 62.875597 -153.706354 0.000000 0.000000 0.000000 
0.112839 1.486805 1.250960 1.717643 -77.920327 -48.325474 14.686017 12.117673 46.354262 2.317685 1.045009 11.168319 -4.475520 -4.125851 42.225999 0.000000 0.000000 0.000000 4.606679 4.990736 36.053917 -0.080674 2.628378 16.325402 6.777143 -14.004486 48.027139 0.000000 0.000000 0.000000 54.276772 -27.884874 111.717458 -34.270536 -13.232170 -49.988494 -23.245566 -49.027523 29.977902 -2.449989 -2.606396 -1.001384 0.000000 0.000000 0.000000 -8.276983 21.884032 -8.713746 -23.086812 13.658923 -5.882832 93.778342 -80.726025 -59.815997 0.000000 0.000000 0.000000 -1.889670 -21.217576 -7.762391 22.964886 -18.496562 -6.461671 -160.090304 63.373722 -169.536991 0.000000 0.000000 0.000000 
0.114566 1.483907 1.256205 3.564702 -77.933434 -49.776734 13.399162 12.035830 45.068855 2.784679 1.231153 12.355659 -4.359458 -4.523418 41.229514 0.000000 0.000000 0.000000 3.762119 5.061967 34.833315 1.219836 2.768821 17.518061 5.973339 -14.459240 46.742583 0.000000 0.000000 0.000000 56.082136 -29.105743 110.135441 -36.510646 -15.177950 -50.657274 -24.848311 -50.541601 33.197505 -3.360125 -1.538697 0.539133 0.000000 0.000000 0.000000 -7.289306 20.790245 -8.171782 -22.761671 13.939209 -5.673326 105.974424 -80.069600 -69.702643 0.000000 0.000000 0.000000 -0.200637 -20.353369 -9.763059 21.097932 -21.014710 -6.343818 -167.574870 63.322736 178.501668 0.000000 0.000000 0.000000 
